<svg width="32" height="32" viewBox="0 0 32 32" fill="none" xmlns="http://www.w3.org/2000/svg">
  <defs>
    <linearGradient id="favYellow" x1="0%" y1="0%" x2="100%" y2="100%">
      <stop offset="0%" style="stop-color:#FDE047"/>
      <stop offset="100%" style="stop-color:#EAB308"/>
    </linearGradient>
    <linearGradient id="favBlue" x1="0%" y1="0%" x2="100%" y2="100%">
      <stop offset="0%" style="stop-color:#60A5FA"/>
      <stop offset="100%" style="stop-color:#1D4ED8"/>
    </linearGradient>
    <linearGradient id="favGreen" x1="0%" y1="0%" x2="100%" y2="100%">
      <stop offset="0%" style="stop-color:#4ADE80"/>
      <stop offset="100%" style="stop-color:#16A34A"/>
    </linearGradient>
  </defs>
  
  <!-- White background -->
  <rect width="32" height="32" rx="6" fill="white" stroke="#E5E7EB" stroke-width="0.5"/>
  
  <!-- Chart bars -->
  <rect x="8" y="19" width="4" height="9" rx="2" fill="url(#favYellow)"/>
  <ellipse cx="10" cy="19" rx="2" ry="1" fill="#FDE047"/>
  
  <rect x="14" y="16" width="4" height="12" rx="2" fill="url(#favBlue)"/>
  <ellipse cx="16" cy="16" rx="2" ry="1" fill="#60A5FA"/>
  
  <rect x="20" y="12" width="4" height="16" rx="2" fill="url(#favYellow)"/>
  <ellipse cx="22" cy="12" rx="2" ry="1" fill="#FDE047"/>
  
  <!-- Green arrow -->
  <path d="M25 20 Q27 17 29 14" stroke="url(#favGreen)" stroke-width="2.5" stroke-linecap="round"/>
  <polygon points="27,15 29,14 30,16" fill="#22C55E"/>
  
  <!-- Leaf -->
  <path d="M4 22 Q2 18 4 15 Q6 13 8 15 Q9 18 8 20 Q6 22 4 22 Z" fill="url(#favGreen)"/>
  <path d="M4 22 Q6 18 8 15" stroke="white" stroke-width="0.5" fill="none" opacity="0.8"/>
  
  <!-- Base curve -->
  <path d="M8 21 Q16 22 25 21" stroke="url(#favGreen)" stroke-width="2" stroke-linecap="round"/>
</svg>